<?xml version="1.0" encoding="UTF-8"?> <svg xmlns="http://www.w3.org/2000/svg" xmlns:xlink="http://www.w3.org/1999/xlink" version="1.1" id="Capa_1" x="0px" y="0px" viewBox="0 0 58 50" style="enable-background:new 0 0 58 50;" xml:space="preserve"> <g> <rect x="25.4" y="46.4" fill="#E4E7E8" width="7.4" height="3.5"></rect> <rect x="25.4" y="0" fill="#E4E7E8" width="7.4" height="3.5"></rect> <path fill="#CCE4E7" d="M33.7,26.3c0,0-0.9,0.1-1.6,0.7l-5.2,5.2l-9.9-10.9l12-5.3l0.2-12.3L26,0.3l0,0C25.8,0.1,25.6,0,25.3,0 c-0.2,0-0.3,0.1-0.5,0.1l0,0l-0.1,0.1c0,0-0.1,0.1-0.1,0.1L0.9,24.1c-0.2,0.2-0.5,0.5-0.5,0.8c0,0.3,0.1,0.5,0.3,0.7l24,24 c0,0,0,0,0,0l0.1,0.1l0.1,0c0.2,0.1,0.3,0.2,0.5,0.2c0.4,0,0.7-0.2,1-0.5l0,0l3.4-3.5l12-19.6H33.7z"></path> <path fill="#007787" d="M57.5,24.4L33.3,0.3C33.1,0,32.8,0,32.5,0h0c-0.1,0-0.2,0.1-0.3,0.1c-0.1,0.1-0.2,0.2-0.4,0.3 c-0.1,0.1-0.9,0.9-2.3,2.3l0,0l-0.5,0.5l0,0c-0.2,0.2-0.5,0.5-0.7,0.7l0,0l0,0C22.2,10.1,9.9,22.4,7.9,24.4 c-0.1,0.1-0.2,0.2-0.2,0.4l0,0l0,0.1l0,0.1l0,0.1l0,0.1l0,0.1l0,0.1l0,0l0.1,0.2c0.1,0.1,0.1,0.2,0.2,0.2 C8.3,26.2,22.2,40,28.6,46.4l0,0l0,0c0.1,0.1,0.2,0.2,0.3,0.3l0,0l0.4,0.4l2.7,2.6l0.1,0.1l0.1,0.1l0.1,0l0.1,0 c0.2,0.1,0.3,0.1,0.5,0l0.1,0l0,0c0.1,0,0.2-0.1,0.3-0.1l0.1-0.1l0,0l0.1-0.1c1.2-1.2,15-15,20.4-20.4L56,27l0,0 c0.4-0.4,0.2-0.6-0.3-0.6l-5.9,0l-1.4,0c0,0,0,0,0,0H41l-0.1,0c-0.1,0-0.3,0-0.5,0.1l-0.1,0.1l0,0L40,26.6l0,0l-0.2,0.1l-0.1,0.1 l-0.1,0.1L39.5,27l-6.7,6.7c-0.1,0.1-0.2,0.2-0.3,0.2c-0.2,0.1-0.3,0.1-0.5,0h0c-0.2,0-0.3-0.1-0.5-0.2c-0.1-0.1-1-1-1.7-1.7 l-1.1-1.1l0,0l-0.1-0.1l0,0l-3.9-3.9l-0.1-0.1l-1-1c-0.1-0.1-0.1-0.1-0.1-0.2c0,0,0-0.1,0-0.1c0,0,0,0,0-0.1c0,0,0,0,0,0 c0-0.1,0.1-0.1,0.2-0.2l0.8,0l25.1,0l0,0h0l0.4,0l0,0l0.6,0c3.8,0,6.4,0,6.5,0c0.3,0,0.4,0,0.5-0.1C57.7,24.8,57.7,24.6,57.5,24.4z "></path> <path fill="#1F8795" d="M23.5,25.7c-0.1-0.1-0.2-0.2-0.2-0.3c-0.1-0.2,0.3-0.4,0.6-0.4h-7.4c-0.5,0-0.6,0.3-0.2,0.7l8,8 c0.4,0.4,0.9,0.4,1.3,0l3-3L23.5,25.7z"></path> <path fill="#1F8795" d="M55.7,26.3l-7.3,0c0.5,0,0.6,0.3,0.3,0.6L29,46.7l3,3l0.1,0.1l0.1,0.1l0.1,0l0.1,0c0.2,0.1,0.3,0.1,0.5,0 l0.1,0l0,0c0.1,0,0.2-0.1,0.3-0.1l0.1-0.1l0,0l0.1-0.1c1.2-1.2,15-15,20.4-20.4L56,27l0,0C56.4,26.6,56.2,26.3,55.7,26.3"></path> <path fill="#1F8795" d="M57.4,24.4L33.2,0.3C33,0,32.7,0,32.4,0h0c-0.1,0-0.2,0.1-0.3,0.1c-0.1,0.1-0.2,0.2-0.4,0.3 c-0.1,0.1-1.1,1.1-2.8,2.8l21.1,21.1c0.3,0.3,0.3,0.6-0.1,0.6c4,0,6.9,0,7,0c0.3,0,0.4,0,0.5-0.1C57.6,24.8,57.6,24.6,57.4,24.4"></path> </g> </svg> 